<mxfile host="app.diagrams.net" agent="Mozilla/5.0 (Windows NT 10.0; Win64; x64) AppleWebKit/537.36 (KHTML, like Gecko) Chrome/131.0.0.0 Safari/537.36 Edg/131.0.0.0" version="24.9.3">
  <diagram name="Page-1" id="UfHzQ_-jYsNJW2wkv0if">
    <mxGraphModel dx="786" dy="468" grid="1" gridSize="10" guides="1" tooltips="1" connect="1" arrows="1" fold="1" page="1" pageScale="1" pageWidth="850" pageHeight="1100" math="0" shadow="0">
      <root>
        <mxCell id="0" />
        <mxCell id="1" parent="0" />
        <mxCell id="2bNtola9W9ZlGzoYoYjb-123" value="" style="group;movable=1;resizable=1;rotatable=1;deletable=1;editable=1;locked=0;connectable=1;" parent="1" vertex="1" connectable="0">
          <mxGeometry x="34.9960475898275" y="200" width="780.0039524101725" height="481.2499999999999" as="geometry" />
        </mxCell>
        <mxCell id="2bNtola9W9ZlGzoYoYjb-6" value="" style="endArrow=none;html=1;rounded=0;exitX=0.5;exitY=0;exitDx=0;exitDy=0;movable=0;resizable=0;rotatable=0;deletable=0;editable=0;locked=1;connectable=0;" parent="2bNtola9W9ZlGzoYoYjb-123" source="2bNtola9W9ZlGzoYoYjb-12" target="2bNtola9W9ZlGzoYoYjb-7" edge="1">
          <mxGeometry width="50" height="50" relative="1" as="geometry">
            <mxPoint x="467.3398084134451" y="156.36363636363637" as="sourcePoint" />
            <mxPoint x="404.99747528465264" y="87.63636363636363" as="targetPoint" />
          </mxGeometry>
        </mxCell>
        <mxCell id="2bNtola9W9ZlGzoYoYjb-7" value="NAME" style="ellipse;whiteSpace=wrap;html=1;container=0;movable=0;resizable=0;rotatable=0;deletable=0;editable=0;locked=1;connectable=0;" parent="2bNtola9W9ZlGzoYoYjb-123" vertex="1">
          <mxGeometry x="307.0309517965501" y="110.5454545454545" width="62.342333128792525" height="22.9090909090909" as="geometry" />
        </mxCell>
        <mxCell id="2bNtola9W9ZlGzoYoYjb-8" value="" style="endArrow=none;html=1;rounded=0;exitX=0.5;exitY=0;exitDx=0;exitDy=0;movable=0;resizable=0;rotatable=0;deletable=0;editable=0;locked=1;connectable=0;" parent="2bNtola9W9ZlGzoYoYjb-123" source="2bNtola9W9ZlGzoYoYjb-12" target="2bNtola9W9ZlGzoYoYjb-9" edge="1">
          <mxGeometry width="50" height="50" relative="1" as="geometry">
            <mxPoint x="467.3398084134451" y="156.36363636363637" as="sourcePoint" />
            <mxPoint x="485.1519035931002" y="110.5454545454545" as="targetPoint" />
          </mxGeometry>
        </mxCell>
        <mxCell id="2bNtola9W9ZlGzoYoYjb-9" value="&lt;u&gt;NUMBER&lt;/u&gt;" style="ellipse;whiteSpace=wrap;html=1;container=0;movable=0;resizable=0;rotatable=0;deletable=0;editable=0;locked=1;connectable=0;" parent="2bNtola9W9ZlGzoYoYjb-123" vertex="1">
          <mxGeometry x="382.7286418490489" y="87.63999999999999" width="62.342333128792525" height="22.9090909090909" as="geometry" />
        </mxCell>
        <mxCell id="2bNtola9W9ZlGzoYoYjb-12" value="DEPARTMENT" style="rounded=0;whiteSpace=wrap;html=1;container=0;movable=0;resizable=0;rotatable=0;deletable=0;editable=0;locked=1;connectable=0;" parent="2bNtola9W9ZlGzoYoYjb-123" vertex="1">
          <mxGeometry x="422.8095704643076" y="164" width="89.06047589827503" height="30.54545454545454" as="geometry" />
        </mxCell>
        <mxCell id="2bNtola9W9ZlGzoYoYjb-18" value="MANAGE" style="rhombus;whiteSpace=wrap;html=1;direction=south;container=0;movable=0;resizable=0;rotatable=0;deletable=0;editable=0;locked=1;connectable=0;" parent="2bNtola9W9ZlGzoYoYjb-123" vertex="1">
          <mxGeometry x="360.0039524101725" y="202.18" width="70" height="61.09" as="geometry" />
        </mxCell>
        <mxCell id="2bNtola9W9ZlGzoYoYjb-21" value="PROJECT" style="rounded=0;whiteSpace=wrap;html=1;container=0;movable=0;resizable=0;rotatable=0;deletable=0;editable=0;locked=1;connectable=0;" parent="2bNtola9W9ZlGzoYoYjb-123" vertex="1">
          <mxGeometry x="480.0039524101725" y="354.9100000000001" width="96.87" height="38.18" as="geometry" />
        </mxCell>
        <mxCell id="2bNtola9W9ZlGzoYoYjb-22" value="" style="endArrow=none;html=1;rounded=0;exitX=0.657;exitY=0.033;exitDx=0;exitDy=0;exitPerimeter=0;entryX=0.5;entryY=1;entryDx=0;entryDy=0;movable=0;resizable=0;rotatable=0;deletable=0;editable=0;locked=1;connectable=0;" parent="2bNtola9W9ZlGzoYoYjb-123" source="2bNtola9W9ZlGzoYoYjb-23" target="2bNtola9W9ZlGzoYoYjb-21" edge="1">
          <mxGeometry width="50" height="50" relative="1" as="geometry">
            <mxPoint x="538.5881891320652" y="469.4545454545454" as="sourcePoint" />
            <mxPoint x="583.1184270812026" y="431.27272727272725" as="targetPoint" />
          </mxGeometry>
        </mxCell>
        <mxCell id="2bNtola9W9ZlGzoYoYjb-23" value="NAME" style="ellipse;whiteSpace=wrap;html=1;container=0;movable=0;resizable=0;rotatable=0;deletable=0;editable=0;locked=1;connectable=0;" parent="2bNtola9W9ZlGzoYoYjb-123" vertex="1">
          <mxGeometry x="476.2458560032726" y="454.181818181818" width="62.342333128792525" height="22.9090909090909" as="geometry" />
        </mxCell>
        <mxCell id="2bNtola9W9ZlGzoYoYjb-24" value="NUMBER" style="ellipse;whiteSpace=wrap;html=1;container=0;movable=0;resizable=0;rotatable=0;deletable=0;editable=0;locked=1;connectable=0;" parent="2bNtola9W9ZlGzoYoYjb-123" vertex="1">
          <mxGeometry x="547.4942367218927" y="458.340909090909" width="62.342333128792525" height="22.9090909090909" as="geometry" />
        </mxCell>
        <mxCell id="2bNtola9W9ZlGzoYoYjb-25" value="" style="endArrow=none;html=1;rounded=0;exitX=0.5;exitY=0;exitDx=0;exitDy=0;entryX=0.5;entryY=1;entryDx=0;entryDy=0;movable=1;resizable=1;rotatable=1;deletable=1;editable=1;locked=0;connectable=1;" parent="2bNtola9W9ZlGzoYoYjb-123" source="2bNtola9W9ZlGzoYoYjb-24" target="2bNtola9W9ZlGzoYoYjb-21" edge="1">
          <mxGeometry width="50" height="50" relative="1" as="geometry">
            <mxPoint x="520.7760939524102" y="484.72727272727263" as="sourcePoint" />
            <mxPoint x="583.1184270812026" y="431.27272727272725" as="targetPoint" />
          </mxGeometry>
        </mxCell>
        <mxCell id="2bNtola9W9ZlGzoYoYjb-32" value="" style="endArrow=none;html=1;rounded=0;entryX=0.5;entryY=1;entryDx=0;entryDy=0;exitX=0.5;exitY=0;exitDx=0;exitDy=0;movable=0;resizable=0;rotatable=0;deletable=0;editable=0;locked=1;connectable=0;" parent="2bNtola9W9ZlGzoYoYjb-123" source="2bNtola9W9ZlGzoYoYjb-18" target="2bNtola9W9ZlGzoYoYjb-12" edge="1">
          <mxGeometry relative="1" as="geometry">
            <mxPoint x="351.56118974568756" y="225.09090909090907" as="sourcePoint" />
            <mxPoint x="494.0579511829276" y="225.09090909090907" as="targetPoint" />
          </mxGeometry>
        </mxCell>
        <mxCell id="2bNtola9W9ZlGzoYoYjb-33" value="1" style="resizable=0;html=1;whiteSpace=wrap;align=right;verticalAlign=bottom;container=0;movable=0;rotatable=0;deletable=0;editable=0;locked=1;connectable=0;" parent="2bNtola9W9ZlGzoYoYjb-32" connectable="0" vertex="1">
          <mxGeometry x="1" relative="1" as="geometry">
            <mxPoint x="-24" y="26" as="offset" />
          </mxGeometry>
        </mxCell>
        <mxCell id="2bNtola9W9ZlGzoYoYjb-36" value="START-DATE" style="ellipse;whiteSpace=wrap;html=1;align=center;container=0;movable=0;resizable=0;rotatable=0;deletable=0;editable=0;locked=1;connectable=0;" parent="2bNtola9W9ZlGzoYoYjb-123" vertex="1">
          <mxGeometry x="293.6721415422377" y="149.99636363636364" width="89.06047589827503" height="30.54545454545454" as="geometry" />
        </mxCell>
        <mxCell id="2bNtola9W9ZlGzoYoYjb-38" value="" style="endArrow=none;html=1;rounded=0;entryX=0.393;entryY=1.008;entryDx=0;entryDy=0;entryPerimeter=0;exitX=0;exitY=1;exitDx=0;exitDy=0;movable=0;resizable=0;rotatable=0;deletable=0;editable=0;locked=1;connectable=0;" parent="2bNtola9W9ZlGzoYoYjb-123" source="2bNtola9W9ZlGzoYoYjb-18" target="2bNtola9W9ZlGzoYoYjb-36" edge="1">
          <mxGeometry relative="1" as="geometry">
            <mxPoint x="351.56118974568756" y="225.09090909090907" as="sourcePoint" />
            <mxPoint x="494.0579511829276" y="225.09090909090907" as="targetPoint" />
          </mxGeometry>
        </mxCell>
        <mxCell id="2bNtola9W9ZlGzoYoYjb-39" value="EMPLOYEE" style="whiteSpace=wrap;html=1;align=center;container=0;movable=0;resizable=0;rotatable=0;deletable=0;editable=0;locked=1;connectable=0;" parent="2bNtola9W9ZlGzoYoYjb-123" vertex="1">
          <mxGeometry x="235.78257107793004" y="244.18181818181813" width="89.06047589827503" height="30.54545454545454" as="geometry" />
        </mxCell>
        <mxCell id="2bNtola9W9ZlGzoYoYjb-40" value="" style="endArrow=none;html=1;rounded=0;entryX=1;entryY=0.5;entryDx=0;entryDy=0;exitX=0.5;exitY=1;exitDx=0;exitDy=0;movable=0;resizable=0;rotatable=0;deletable=0;editable=0;locked=1;connectable=0;" parent="2bNtola9W9ZlGzoYoYjb-123" source="2bNtola9W9ZlGzoYoYjb-18" target="2bNtola9W9ZlGzoYoYjb-39" edge="1">
          <mxGeometry relative="1" as="geometry">
            <mxPoint x="351.56118974568756" y="225.09090909090907" as="sourcePoint" />
            <mxPoint x="494.0579511829276" y="225.09090909090907" as="targetPoint" />
          </mxGeometry>
        </mxCell>
        <mxCell id="2bNtola9W9ZlGzoYoYjb-41" value="1" style="resizable=0;html=1;whiteSpace=wrap;align=right;verticalAlign=bottom;container=0;movable=0;rotatable=0;deletable=0;editable=0;locked=1;connectable=0;" parent="2bNtola9W9ZlGzoYoYjb-40" connectable="0" vertex="1">
          <mxGeometry x="1" relative="1" as="geometry">
            <mxPoint x="13" y="-4" as="offset" />
          </mxGeometry>
        </mxCell>
        <mxCell id="2bNtola9W9ZlGzoYoYjb-42" value="&lt;u&gt;ID EMP&lt;/u&gt;" style="ellipse;whiteSpace=wrap;html=1;align=center;container=0;movable=0;resizable=0;rotatable=0;deletable=0;editable=0;locked=1;connectable=0;" parent="2bNtola9W9ZlGzoYoYjb-123" vertex="1">
          <mxGeometry y="167.81909090909085" width="80.15442830844752" height="22.9090909090909" as="geometry" />
        </mxCell>
        <mxCell id="2bNtola9W9ZlGzoYoYjb-44" value="ADDRESS" style="ellipse;whiteSpace=wrap;html=1;align=center;container=0;movable=0;resizable=0;rotatable=0;deletable=0;editable=0;locked=1;connectable=0;" parent="2bNtola9W9ZlGzoYoYjb-123" vertex="1">
          <mxGeometry x="8.914428308447555" y="127.09000000000003" width="71.24838071862003" height="22.9090909090909" as="geometry" />
        </mxCell>
        <mxCell id="2bNtola9W9ZlGzoYoYjb-45" value="SALARY" style="ellipse;whiteSpace=wrap;html=1;align=center;container=0;movable=0;resizable=0;rotatable=0;deletable=0;editable=0;locked=1;connectable=0;" parent="2bNtola9W9ZlGzoYoYjb-123" vertex="1">
          <mxGeometry x="4.453952410172505" y="210.00272727272727" width="71.24838071862003" height="22.9090909090909" as="geometry" />
        </mxCell>
        <mxCell id="2bNtola9W9ZlGzoYoYjb-46" value="SEX" style="ellipse;whiteSpace=wrap;html=1;align=center;container=0;movable=0;resizable=0;rotatable=0;deletable=0;editable=0;locked=1;connectable=0;" parent="2bNtola9W9ZlGzoYoYjb-123" vertex="1">
          <mxGeometry x="8.906976205086252" y="244.18636363636358" width="62.342333128792525" height="22.9090909090909" as="geometry" />
        </mxCell>
        <mxCell id="2bNtola9W9ZlGzoYoYjb-48" value="BIRTHDAY" style="ellipse;whiteSpace=wrap;html=1;align=center;container=0;movable=0;resizable=0;rotatable=0;deletable=0;editable=0;locked=1;connectable=0;" parent="2bNtola9W9ZlGzoYoYjb-123" vertex="1">
          <mxGeometry x="4.456976205086249" y="279.9981818181818" width="71.24838071862003" height="22.9090909090909" as="geometry" />
        </mxCell>
        <mxCell id="2bNtola9W9ZlGzoYoYjb-49" value="" style="endArrow=none;html=1;rounded=0;entryX=1;entryY=0.5;entryDx=0;entryDy=0;exitX=0;exitY=0.5;exitDx=0;exitDy=0;movable=0;resizable=0;rotatable=0;deletable=0;editable=0;locked=1;connectable=0;" parent="2bNtola9W9ZlGzoYoYjb-123" source="2bNtola9W9ZlGzoYoYjb-39" target="2bNtola9W9ZlGzoYoYjb-46" edge="1">
          <mxGeometry relative="1" as="geometry">
            <mxPoint x="289.2188566168951" y="225.09090909090907" as="sourcePoint" />
            <mxPoint x="431.7156180541351" y="225.09090909090907" as="targetPoint" />
          </mxGeometry>
        </mxCell>
        <mxCell id="2bNtola9W9ZlGzoYoYjb-50" value="" style="endArrow=none;html=1;rounded=0;entryX=1;entryY=0.5;entryDx=0;entryDy=0;exitX=0;exitY=0.5;exitDx=0;exitDy=0;movable=0;resizable=0;rotatable=0;deletable=0;editable=0;locked=1;connectable=0;" parent="2bNtola9W9ZlGzoYoYjb-123" source="2bNtola9W9ZlGzoYoYjb-39" target="2bNtola9W9ZlGzoYoYjb-45" edge="1">
          <mxGeometry relative="1" as="geometry">
            <mxPoint x="289.2188566168951" y="225.09090909090907" as="sourcePoint" />
            <mxPoint x="431.7156180541351" y="225.09090909090907" as="targetPoint" />
          </mxGeometry>
        </mxCell>
        <mxCell id="2bNtola9W9ZlGzoYoYjb-51" value="" style="endArrow=none;html=1;rounded=0;entryX=1;entryY=1;entryDx=0;entryDy=0;exitX=0;exitY=0.5;exitDx=0;exitDy=0;movable=0;resizable=0;rotatable=0;deletable=0;editable=0;locked=1;connectable=0;" parent="2bNtola9W9ZlGzoYoYjb-123" source="2bNtola9W9ZlGzoYoYjb-39" target="2bNtola9W9ZlGzoYoYjb-42" edge="1">
          <mxGeometry relative="1" as="geometry">
            <mxPoint x="289.2188566168951" y="225.09090909090907" as="sourcePoint" />
            <mxPoint x="431.7156180541351" y="225.09090909090907" as="targetPoint" />
          </mxGeometry>
        </mxCell>
        <mxCell id="2bNtola9W9ZlGzoYoYjb-52" value="" style="endArrow=none;html=1;rounded=0;entryX=0.5;entryY=1;entryDx=0;entryDy=0;exitX=0;exitY=0.5;exitDx=0;exitDy=0;movable=0;resizable=0;rotatable=0;deletable=0;editable=0;locked=1;connectable=0;" parent="2bNtola9W9ZlGzoYoYjb-123" source="2bNtola9W9ZlGzoYoYjb-39" target="2bNtola9W9ZlGzoYoYjb-44" edge="1">
          <mxGeometry relative="1" as="geometry">
            <mxPoint x="289.2188566168951" y="225.09090909090907" as="sourcePoint" />
            <mxPoint x="431.7156180541351" y="225.09090909090907" as="targetPoint" />
          </mxGeometry>
        </mxCell>
        <mxCell id="2bNtola9W9ZlGzoYoYjb-53" value="" style="endArrow=none;html=1;rounded=0;entryX=1;entryY=0;entryDx=0;entryDy=0;exitX=0;exitY=0.5;exitDx=0;exitDy=0;movable=0;resizable=0;rotatable=0;deletable=0;editable=0;locked=1;connectable=0;" parent="2bNtola9W9ZlGzoYoYjb-123" source="2bNtola9W9ZlGzoYoYjb-39" target="2bNtola9W9ZlGzoYoYjb-48" edge="1">
          <mxGeometry relative="1" as="geometry">
            <mxPoint x="244.68861866775754" y="267.090909090909" as="sourcePoint" />
            <mxPoint x="195.70535692370626" y="274.7272727272727" as="targetPoint" />
          </mxGeometry>
        </mxCell>
        <mxCell id="2bNtola9W9ZlGzoYoYjb-55" value="ID" style="ellipse;whiteSpace=wrap;html=1;align=center;fontStyle=4;container=0;movable=0;resizable=0;rotatable=0;deletable=0;editable=0;locked=1;connectable=0;" parent="2bNtola9W9ZlGzoYoYjb-123" vertex="1">
          <mxGeometry x="412.89395241017246" y="450.36" width="42.8" height="20" as="geometry" />
        </mxCell>
        <mxCell id="2bNtola9W9ZlGzoYoYjb-56" value="" style="endArrow=none;html=1;rounded=0;exitX=1;exitY=0.5;exitDx=0;exitDy=0;entryX=0.5;entryY=1;entryDx=0;entryDy=0;movable=0;resizable=0;rotatable=0;deletable=0;editable=0;locked=1;connectable=0;" parent="2bNtola9W9ZlGzoYoYjb-123" source="2bNtola9W9ZlGzoYoYjb-55" target="2bNtola9W9ZlGzoYoYjb-21" edge="1">
          <mxGeometry relative="1" as="geometry">
            <mxPoint x="342.65514215586006" y="286.18181818181813" as="sourcePoint" />
            <mxPoint x="480.0039524101725" y="400" as="targetPoint" />
          </mxGeometry>
        </mxCell>
        <mxCell id="2bNtola9W9ZlGzoYoYjb-57" value="NAME" style="ellipse;whiteSpace=wrap;html=1;align=center;container=0;movable=0;resizable=0;rotatable=0;deletable=0;editable=0;locked=1;connectable=0;" parent="2bNtola9W9ZlGzoYoYjb-123" vertex="1">
          <mxGeometry x="8.909999999999997" y="319.9999999999999" width="62.342333128792525" height="22.9090909090909" as="geometry" />
        </mxCell>
        <mxCell id="2bNtola9W9ZlGzoYoYjb-58" value="" style="endArrow=none;html=1;rounded=0;exitX=1;exitY=0.5;exitDx=0;exitDy=0;entryX=0;entryY=0.5;entryDx=0;entryDy=0;movable=0;resizable=0;rotatable=0;deletable=0;editable=0;locked=1;connectable=0;" parent="2bNtola9W9ZlGzoYoYjb-123" source="2bNtola9W9ZlGzoYoYjb-57" target="2bNtola9W9ZlGzoYoYjb-39" edge="1">
          <mxGeometry relative="1" as="geometry">
            <mxPoint x="226.87652348810255" y="293.81818181818176" as="sourcePoint" />
            <mxPoint x="369.37328492534255" y="293.81818181818176" as="targetPoint" />
          </mxGeometry>
        </mxCell>
        <mxCell id="2bNtola9W9ZlGzoYoYjb-63" value="WORK FOR" style="shape=rhombus;perimeter=rhombusPerimeter;whiteSpace=wrap;html=1;align=center;container=0;movable=0;resizable=0;rotatable=0;deletable=0;editable=0;locked=1;connectable=0;" parent="2bNtola9W9ZlGzoYoYjb-123" vertex="1">
          <mxGeometry x="400.0039524101725" y="255.64" width="100" height="60" as="geometry" />
        </mxCell>
        <mxCell id="2bNtola9W9ZlGzoYoYjb-65" value="" style="endArrow=none;html=1;rounded=0;exitX=0.5;exitY=0;exitDx=0;exitDy=0;entryX=0.5;entryY=1;entryDx=0;entryDy=0;movable=0;resizable=0;rotatable=0;deletable=0;editable=0;locked=1;connectable=0;" parent="2bNtola9W9ZlGzoYoYjb-123" source="2bNtola9W9ZlGzoYoYjb-63" target="2bNtola9W9ZlGzoYoYjb-12" edge="1">
          <mxGeometry relative="1" as="geometry">
            <mxPoint x="410.0039524101725" y="270" as="sourcePoint" />
            <mxPoint x="570.0039524101725" y="270" as="targetPoint" />
          </mxGeometry>
        </mxCell>
        <mxCell id="2bNtola9W9ZlGzoYoYjb-66" value="1" style="resizable=0;html=1;whiteSpace=wrap;align=right;verticalAlign=bottom;container=0;movable=0;rotatable=0;deletable=0;editable=0;locked=1;connectable=0;" parent="2bNtola9W9ZlGzoYoYjb-65" connectable="0" vertex="1">
          <mxGeometry x="1" relative="1" as="geometry">
            <mxPoint x="23" y="15" as="offset" />
          </mxGeometry>
        </mxCell>
        <mxCell id="2bNtola9W9ZlGzoYoYjb-67" value="" style="endArrow=none;html=1;rounded=0;entryX=1;entryY=1;entryDx=0;entryDy=0;exitX=0;exitY=0.5;exitDx=0;exitDy=0;movable=0;resizable=0;rotatable=0;deletable=0;editable=0;locked=1;connectable=0;" parent="2bNtola9W9ZlGzoYoYjb-123" source="2bNtola9W9ZlGzoYoYjb-63" target="2bNtola9W9ZlGzoYoYjb-39" edge="1">
          <mxGeometry relative="1" as="geometry">
            <mxPoint x="410.0039524101725" y="270" as="sourcePoint" />
            <mxPoint x="570.0039524101725" y="270" as="targetPoint" />
          </mxGeometry>
        </mxCell>
        <mxCell id="2bNtola9W9ZlGzoYoYjb-68" value="M" style="resizable=0;html=1;whiteSpace=wrap;align=right;verticalAlign=bottom;container=0;movable=0;rotatable=0;deletable=0;editable=0;locked=1;connectable=0;" parent="2bNtola9W9ZlGzoYoYjb-67" connectable="0" vertex="1">
          <mxGeometry x="1" relative="1" as="geometry">
            <mxPoint x="15" as="offset" />
          </mxGeometry>
        </mxCell>
        <mxCell id="2bNtola9W9ZlGzoYoYjb-69" value="CONTROL" style="shape=rhombus;perimeter=rhombusPerimeter;whiteSpace=wrap;html=1;align=center;container=0;movable=1;resizable=1;rotatable=1;deletable=1;editable=1;locked=0;connectable=1;" parent="2bNtola9W9ZlGzoYoYjb-123" vertex="1">
          <mxGeometry x="511.8739524101725" y="260.64" width="90" height="50" as="geometry" />
        </mxCell>
        <mxCell id="2bNtola9W9ZlGzoYoYjb-70" value="" style="endArrow=none;html=1;rounded=0;entryX=0.5;entryY=1;entryDx=0;entryDy=0;exitX=0.5;exitY=0;exitDx=0;exitDy=0;movable=0;resizable=0;rotatable=0;deletable=0;editable=0;locked=1;connectable=0;" parent="2bNtola9W9ZlGzoYoYjb-123" source="2bNtola9W9ZlGzoYoYjb-69" target="2bNtola9W9ZlGzoYoYjb-12" edge="1">
          <mxGeometry relative="1" as="geometry">
            <mxPoint x="410.0039524101725" y="270" as="sourcePoint" />
            <mxPoint x="570.0039524101725" y="270" as="targetPoint" />
          </mxGeometry>
        </mxCell>
        <mxCell id="2bNtola9W9ZlGzoYoYjb-71" value="1" style="resizable=0;html=1;whiteSpace=wrap;align=right;verticalAlign=bottom;container=0;movable=0;rotatable=0;deletable=0;editable=0;locked=1;connectable=0;" parent="2bNtola9W9ZlGzoYoYjb-70" connectable="0" vertex="1">
          <mxGeometry x="1" relative="1" as="geometry">
            <mxPoint x="3" y="27" as="offset" />
          </mxGeometry>
        </mxCell>
        <mxCell id="2bNtola9W9ZlGzoYoYjb-72" value="" style="endArrow=none;html=1;rounded=0;entryX=0.5;entryY=0;entryDx=0;entryDy=0;exitX=0.5;exitY=1;exitDx=0;exitDy=0;movable=0;resizable=0;rotatable=0;deletable=0;editable=0;locked=1;connectable=0;" parent="2bNtola9W9ZlGzoYoYjb-123" source="2bNtola9W9ZlGzoYoYjb-69" target="2bNtola9W9ZlGzoYoYjb-21" edge="1">
          <mxGeometry relative="1" as="geometry">
            <mxPoint x="410.0039524101725" y="270" as="sourcePoint" />
            <mxPoint x="570.0039524101725" y="270" as="targetPoint" />
          </mxGeometry>
        </mxCell>
        <mxCell id="2bNtola9W9ZlGzoYoYjb-73" value="M" style="resizable=0;html=1;whiteSpace=wrap;align=right;verticalAlign=bottom;container=0;movable=0;rotatable=0;deletable=0;editable=0;locked=1;connectable=0;" parent="2bNtola9W9ZlGzoYoYjb-72" connectable="0" vertex="1">
          <mxGeometry x="1" relative="1" as="geometry">
            <mxPoint as="offset" />
          </mxGeometry>
        </mxCell>
        <mxCell id="2bNtola9W9ZlGzoYoYjb-75" value="WORK ON" style="shape=rhombus;perimeter=rhombusPerimeter;whiteSpace=wrap;html=1;align=center;container=0;movable=0;resizable=0;rotatable=0;deletable=0;editable=0;locked=1;connectable=0;" parent="2bNtola9W9ZlGzoYoYjb-123" vertex="1">
          <mxGeometry x="323.9539524101725" y="310.64" width="120" height="60" as="geometry" />
        </mxCell>
        <mxCell id="2bNtola9W9ZlGzoYoYjb-76" value="" style="endArrow=none;html=1;rounded=0;entryX=0.75;entryY=1;entryDx=0;entryDy=0;exitX=0.5;exitY=0;exitDx=0;exitDy=0;movable=0;resizable=0;rotatable=0;deletable=0;editable=0;locked=1;connectable=0;" parent="2bNtola9W9ZlGzoYoYjb-123" source="2bNtola9W9ZlGzoYoYjb-75" target="2bNtola9W9ZlGzoYoYjb-39" edge="1">
          <mxGeometry relative="1" as="geometry">
            <mxPoint x="380.0039524101725" y="300" as="sourcePoint" />
            <mxPoint x="297.5179280016365" y="278.5472727272727" as="targetPoint" />
          </mxGeometry>
        </mxCell>
        <mxCell id="2bNtola9W9ZlGzoYoYjb-77" value="M" style="resizable=0;html=1;whiteSpace=wrap;align=right;verticalAlign=bottom;container=0;movable=0;rotatable=0;deletable=0;editable=0;locked=1;connectable=0;" parent="2bNtola9W9ZlGzoYoYjb-76" connectable="0" vertex="1">
          <mxGeometry x="1" relative="1" as="geometry">
            <mxPoint x="8" y="19" as="offset" />
          </mxGeometry>
        </mxCell>
        <mxCell id="2bNtola9W9ZlGzoYoYjb-78" value="" style="endArrow=none;html=1;rounded=0;exitX=0.5;exitY=1;exitDx=0;exitDy=0;entryX=0;entryY=0.5;entryDx=0;entryDy=0;movable=0;resizable=0;rotatable=0;deletable=0;editable=0;locked=1;connectable=0;" parent="2bNtola9W9ZlGzoYoYjb-123" source="2bNtola9W9ZlGzoYoYjb-75" target="2bNtola9W9ZlGzoYoYjb-21" edge="1">
          <mxGeometry relative="1" as="geometry">
            <mxPoint x="405.8439524101725" y="429.09000000000003" as="sourcePoint" />
            <mxPoint x="460.0039524101725" y="374" as="targetPoint" />
          </mxGeometry>
        </mxCell>
        <mxCell id="2bNtola9W9ZlGzoYoYjb-79" value="M" style="resizable=0;html=1;whiteSpace=wrap;align=right;verticalAlign=bottom;container=0;movable=0;rotatable=0;deletable=0;editable=0;locked=1;connectable=0;" parent="2bNtola9W9ZlGzoYoYjb-78" connectable="0" vertex="1">
          <mxGeometry x="1" relative="1" as="geometry">
            <mxPoint x="-10" y="19" as="offset" />
          </mxGeometry>
        </mxCell>
        <mxCell id="2bNtola9W9ZlGzoYoYjb-80" value="HOUR" style="ellipse;whiteSpace=wrap;html=1;align=center;container=0;movable=0;resizable=0;rotatable=0;deletable=0;editable=0;locked=1;connectable=0;" parent="2bNtola9W9ZlGzoYoYjb-123" vertex="1">
          <mxGeometry x="293.67395241017255" y="393.0899999999999" width="76.33" height="36.91" as="geometry" />
        </mxCell>
        <mxCell id="2bNtola9W9ZlGzoYoYjb-81" value="" style="endArrow=none;html=1;rounded=0;entryX=0.5;entryY=0;entryDx=0;entryDy=0;exitX=0.387;exitY=0.895;exitDx=0;exitDy=0;exitPerimeter=0;movable=0;resizable=0;rotatable=0;deletable=0;editable=0;locked=1;connectable=0;" parent="2bNtola9W9ZlGzoYoYjb-123" source="2bNtola9W9ZlGzoYoYjb-75" target="2bNtola9W9ZlGzoYoYjb-80" edge="1">
          <mxGeometry relative="1" as="geometry">
            <mxPoint x="410.0039524101725" y="270" as="sourcePoint" />
            <mxPoint x="570.0039524101725" y="270" as="targetPoint" />
          </mxGeometry>
        </mxCell>
        <mxCell id="2bNtola9W9ZlGzoYoYjb-83" value="SUPERVISOR" style="shape=rhombus;perimeter=rhombusPerimeter;whiteSpace=wrap;html=1;align=center;container=0;movable=0;resizable=0;rotatable=0;deletable=0;editable=0;locked=1;connectable=0;" parent="2bNtola9W9ZlGzoYoYjb-123" vertex="1">
          <mxGeometry x="187.03395241017247" y="310.64" width="120" height="60" as="geometry" />
        </mxCell>
        <mxCell id="2bNtola9W9ZlGzoYoYjb-85" value="" style="endArrow=none;html=1;rounded=0;exitX=0.5;exitY=0;exitDx=0;exitDy=0;entryX=0.25;entryY=1;entryDx=0;entryDy=0;movable=0;resizable=0;rotatable=0;deletable=0;editable=0;locked=1;connectable=0;" parent="2bNtola9W9ZlGzoYoYjb-123" source="2bNtola9W9ZlGzoYoYjb-83" target="2bNtola9W9ZlGzoYoYjb-39" edge="1">
          <mxGeometry relative="1" as="geometry">
            <mxPoint x="170.0039524101725" y="270" as="sourcePoint" />
            <mxPoint x="330.0039524101725" y="270" as="targetPoint" />
          </mxGeometry>
        </mxCell>
        <mxCell id="2bNtola9W9ZlGzoYoYjb-86" value="1" style="resizable=0;html=1;whiteSpace=wrap;align=right;verticalAlign=bottom;container=0;movable=0;rotatable=0;deletable=0;editable=0;locked=1;connectable=0;" parent="2bNtola9W9ZlGzoYoYjb-85" connectable="0" vertex="1">
          <mxGeometry x="1" relative="1" as="geometry">
            <mxPoint x="12" y="17" as="offset" />
          </mxGeometry>
        </mxCell>
        <mxCell id="2bNtola9W9ZlGzoYoYjb-87" value="" style="endArrow=none;html=1;rounded=0;entryX=0;entryY=1;entryDx=0;entryDy=0;exitX=0;exitY=0.5;exitDx=0;exitDy=0;movable=0;resizable=0;rotatable=0;deletable=0;editable=0;locked=1;connectable=0;" parent="2bNtola9W9ZlGzoYoYjb-123" source="2bNtola9W9ZlGzoYoYjb-83" target="2bNtola9W9ZlGzoYoYjb-39" edge="1">
          <mxGeometry relative="1" as="geometry">
            <mxPoint x="27.033952410172503" y="380" as="sourcePoint" />
            <mxPoint x="187.03395241017247" y="380" as="targetPoint" />
          </mxGeometry>
        </mxCell>
        <mxCell id="2bNtola9W9ZlGzoYoYjb-88" value="M" style="resizable=0;html=1;whiteSpace=wrap;align=right;verticalAlign=bottom;container=0;movable=0;rotatable=0;deletable=0;editable=0;locked=1;connectable=0;" parent="2bNtola9W9ZlGzoYoYjb-87" connectable="0" vertex="1">
          <mxGeometry x="1" relative="1" as="geometry">
            <mxPoint x="-6" y="11" as="offset" />
          </mxGeometry>
        </mxCell>
        <mxCell id="2bNtola9W9ZlGzoYoYjb-90" value="" style="endArrow=none;html=1;rounded=0;exitX=0.5;exitY=1;exitDx=0;exitDy=0;entryX=0.5;entryY=0;entryDx=0;entryDy=0;movable=0;resizable=0;rotatable=0;deletable=0;editable=0;locked=1;connectable=0;" parent="2bNtola9W9ZlGzoYoYjb-123" source="2bNtola9W9ZlGzoYoYjb-92" target="2bNtola9W9ZlGzoYoYjb-39" edge="1">
          <mxGeometry relative="1" as="geometry">
            <mxPoint x="251.03395241017225" y="209.96138000000008" as="sourcePoint" />
            <mxPoint x="280.0039524101725" y="240" as="targetPoint" />
          </mxGeometry>
        </mxCell>
        <mxCell id="2bNtola9W9ZlGzoYoYjb-91" value="1" style="resizable=0;html=1;whiteSpace=wrap;align=right;verticalAlign=bottom;container=0;movable=0;rotatable=0;deletable=0;editable=0;locked=1;connectable=0;" parent="2bNtola9W9ZlGzoYoYjb-90" connectable="0" vertex="1">
          <mxGeometry x="1" relative="1" as="geometry" />
        </mxCell>
        <mxCell id="2bNtola9W9ZlGzoYoYjb-92" value="HAVE" style="shape=rhombus;double=1;perimeter=rhombusPerimeter;whiteSpace=wrap;html=1;align=center;container=0;movable=0;resizable=0;rotatable=0;deletable=0;editable=0;locked=1;connectable=0;" parent="2bNtola9W9ZlGzoYoYjb-123" vertex="1">
          <mxGeometry x="180.0039524101725" y="170" width="100" height="32.18" as="geometry" />
        </mxCell>
        <mxCell id="2bNtola9W9ZlGzoYoYjb-93" value="DEPENDENT" style="shape=ext;margin=3;double=1;whiteSpace=wrap;html=1;align=center;container=0;movable=0;resizable=0;rotatable=0;deletable=0;editable=0;locked=1;connectable=0;" parent="2bNtola9W9ZlGzoYoYjb-123" vertex="1">
          <mxGeometry x="160.0039524101725" y="102" width="100" height="40" as="geometry" />
        </mxCell>
        <mxCell id="2bNtola9W9ZlGzoYoYjb-94" value="" style="endArrow=none;html=1;rounded=0;exitX=0.5;exitY=0;exitDx=0;exitDy=0;entryX=0.6;entryY=0.95;entryDx=0;entryDy=0;entryPerimeter=0;movable=0;resizable=0;rotatable=0;deletable=0;editable=0;locked=1;connectable=0;" parent="2bNtola9W9ZlGzoYoYjb-123" source="2bNtola9W9ZlGzoYoYjb-92" target="2bNtola9W9ZlGzoYoYjb-93" edge="1">
          <mxGeometry relative="1" as="geometry">
            <mxPoint x="270.0039524101725" y="170" as="sourcePoint" />
            <mxPoint x="430.0039524101725" y="170" as="targetPoint" />
          </mxGeometry>
        </mxCell>
        <mxCell id="2bNtola9W9ZlGzoYoYjb-95" value="1" style="resizable=0;html=1;whiteSpace=wrap;align=right;verticalAlign=bottom;container=0;movable=0;rotatable=0;deletable=0;editable=0;locked=1;connectable=0;" parent="2bNtola9W9ZlGzoYoYjb-94" connectable="0" vertex="1">
          <mxGeometry x="1" relative="1" as="geometry">
            <mxPoint y="24" as="offset" />
          </mxGeometry>
        </mxCell>
        <mxCell id="2bNtola9W9ZlGzoYoYjb-96" value="M" style="edgeLabel;html=1;align=center;verticalAlign=middle;resizable=0;points=[];container=0;movable=0;rotatable=0;deletable=0;editable=0;locked=1;connectable=0;" parent="2bNtola9W9ZlGzoYoYjb-94" vertex="1" connectable="0">
          <mxGeometry x="0.2147" y="9" relative="1" as="geometry">
            <mxPoint as="offset" />
          </mxGeometry>
        </mxCell>
        <mxCell id="2bNtola9W9ZlGzoYoYjb-97" value="" style="endArrow=none;html=1;rounded=0;exitX=0.426;exitY=0.042;exitDx=0;exitDy=0;exitPerimeter=0;movable=0;resizable=0;rotatable=0;deletable=0;editable=0;locked=1;connectable=0;" parent="2bNtola9W9ZlGzoYoYjb-123" source="2bNtola9W9ZlGzoYoYjb-93" target="2bNtola9W9ZlGzoYoYjb-98" edge="1">
          <mxGeometry width="50" height="50" relative="1" as="geometry">
            <mxPoint x="199.97395241017253" y="102" as="sourcePoint" />
            <mxPoint x="137.96747528465264" y="25.636363636363626" as="targetPoint" />
          </mxGeometry>
        </mxCell>
        <mxCell id="2bNtola9W9ZlGzoYoYjb-98" value="&lt;u&gt;NAME&lt;/u&gt;" style="ellipse;whiteSpace=wrap;html=1;container=0;movable=0;resizable=0;rotatable=0;deletable=0;editable=0;locked=1;connectable=0;" parent="2bNtola9W9ZlGzoYoYjb-123" vertex="1">
          <mxGeometry x="40.00095179655008" y="48.54545454545453" width="62.342333128792525" height="22.9090909090909" as="geometry" />
        </mxCell>
        <mxCell id="2bNtola9W9ZlGzoYoYjb-99" value="SEX" style="ellipse;whiteSpace=wrap;html=1;align=center;container=0;movable=0;resizable=0;rotatable=0;deletable=0;editable=0;locked=1;connectable=0;" parent="2bNtola9W9ZlGzoYoYjb-123" vertex="1">
          <mxGeometry x="116.45697620508625" y="26.99636363636361" width="62.342333128792525" height="22.9090909090909" as="geometry" />
        </mxCell>
        <mxCell id="2bNtola9W9ZlGzoYoYjb-100" value="" style="endArrow=none;html=1;rounded=0;entryX=1;entryY=0.5;entryDx=0;entryDy=0;exitX=0.412;exitY=0.007;exitDx=0;exitDy=0;exitPerimeter=0;movable=0;resizable=0;rotatable=0;deletable=0;editable=0;locked=1;connectable=0;" parent="2bNtola9W9ZlGzoYoYjb-123" source="2bNtola9W9ZlGzoYoYjb-93" target="2bNtola9W9ZlGzoYoYjb-99" edge="1">
          <mxGeometry relative="1" as="geometry">
            <mxPoint x="343.55395241017254" y="41.81" as="sourcePoint" />
            <mxPoint x="539.2656180541351" y="7.900909090909067" as="targetPoint" />
          </mxGeometry>
        </mxCell>
        <mxCell id="2bNtola9W9ZlGzoYoYjb-101" value="BIRTHDAY" style="ellipse;whiteSpace=wrap;html=1;align=center;container=0;movable=0;resizable=0;rotatable=0;deletable=0;editable=0;locked=1;connectable=0;" parent="2bNtola9W9ZlGzoYoYjb-123" vertex="1">
          <mxGeometry x="191.26697620508625" y="25.638181818181778" width="71.24838071862003" height="22.9090909090909" as="geometry" />
        </mxCell>
        <mxCell id="2bNtola9W9ZlGzoYoYjb-102" value="" style="endArrow=none;html=1;rounded=0;entryX=0.5;entryY=1;entryDx=0;entryDy=0;exitX=0.5;exitY=0;exitDx=0;exitDy=0;movable=0;resizable=0;rotatable=0;deletable=0;editable=0;locked=1;connectable=0;" parent="2bNtola9W9ZlGzoYoYjb-123" source="2bNtola9W9ZlGzoYoYjb-93" target="2bNtola9W9ZlGzoYoYjb-101" edge="1">
          <mxGeometry relative="1" as="geometry">
            <mxPoint x="422.81395241017253" y="4.639999999999986" as="sourcePoint" />
            <mxPoint x="382.51535692370624" y="20.367272727272677" as="targetPoint" />
          </mxGeometry>
        </mxCell>
        <mxCell id="2bNtola9W9ZlGzoYoYjb-105" value="RELATIONSHIP" style="ellipse;whiteSpace=wrap;html=1;align=center;container=0;movable=0;resizable=0;rotatable=0;deletable=0;editable=0;locked=1;connectable=0;" parent="2bNtola9W9ZlGzoYoYjb-123" vertex="1">
          <mxGeometry x="280.0039524101725" y="20" width="100" height="38.45" as="geometry" />
        </mxCell>
        <mxCell id="2bNtola9W9ZlGzoYoYjb-106" value="" style="endArrow=none;html=1;rounded=0;entryX=0.75;entryY=0;entryDx=0;entryDy=0;exitX=0;exitY=1;exitDx=0;exitDy=0;movable=0;resizable=0;rotatable=0;deletable=0;editable=0;locked=1;connectable=0;" parent="2bNtola9W9ZlGzoYoYjb-123" source="2bNtola9W9ZlGzoYoYjb-105" target="2bNtola9W9ZlGzoYoYjb-93" edge="1">
          <mxGeometry relative="1" as="geometry">
            <mxPoint x="270.0039524101725" y="60" as="sourcePoint" />
            <mxPoint x="430.0039524101725" y="60" as="targetPoint" />
          </mxGeometry>
        </mxCell>
        <mxCell id="2bNtola9W9ZlGzoYoYjb-108" value="ASSIGN" style="shape=rhombus;perimeter=rhombusPerimeter;whiteSpace=wrap;html=1;align=center;movable=0;resizable=0;rotatable=0;deletable=0;editable=0;locked=1;connectable=0;" parent="2bNtola9W9ZlGzoYoYjb-123" vertex="1">
          <mxGeometry x="560.0039524101725" y="141.26999999999998" width="92.35" height="48" as="geometry" />
        </mxCell>
        <mxCell id="2bNtola9W9ZlGzoYoYjb-109" value="LOCATION" style="whiteSpace=wrap;html=1;align=center;movable=0;resizable=0;rotatable=0;deletable=0;editable=0;locked=1;connectable=0;" parent="2bNtola9W9ZlGzoYoYjb-123" vertex="1">
          <mxGeometry x="609.8339524101725" y="79.08999999999997" width="70.17" height="30.91" as="geometry" />
        </mxCell>
        <mxCell id="2bNtola9W9ZlGzoYoYjb-110" value="&lt;u&gt;Code&lt;/u&gt;" style="ellipse;whiteSpace=wrap;html=1;align=center;movable=0;resizable=0;rotatable=0;deletable=0;editable=0;locked=1;connectable=0;" parent="2bNtola9W9ZlGzoYoYjb-123" vertex="1">
          <mxGeometry x="601.8739524101725" width="58.13" height="40" as="geometry" />
        </mxCell>
        <mxCell id="2bNtola9W9ZlGzoYoYjb-111" value="NAME" style="ellipse;whiteSpace=wrap;html=1;align=center;movable=0;resizable=0;rotatable=0;deletable=0;editable=0;locked=1;connectable=0;" parent="2bNtola9W9ZlGzoYoYjb-123" vertex="1">
          <mxGeometry x="680.0039524101725" y="25.639999999999986" width="100" height="40" as="geometry" />
        </mxCell>
        <mxCell id="2bNtola9W9ZlGzoYoYjb-112" value="" style="endArrow=none;html=1;rounded=0;entryX=0.5;entryY=1;entryDx=0;entryDy=0;exitX=0.5;exitY=0;exitDx=0;exitDy=0;movable=0;resizable=0;rotatable=0;deletable=0;editable=0;locked=1;connectable=0;" parent="2bNtola9W9ZlGzoYoYjb-123" source="2bNtola9W9ZlGzoYoYjb-109" target="2bNtola9W9ZlGzoYoYjb-110" edge="1">
          <mxGeometry relative="1" as="geometry">
            <mxPoint x="580.0039524101725" y="190.73000000000002" as="sourcePoint" />
            <mxPoint x="740.0039524101725" y="190.73000000000002" as="targetPoint" />
          </mxGeometry>
        </mxCell>
        <mxCell id="2bNtola9W9ZlGzoYoYjb-113" value="" style="endArrow=none;html=1;rounded=0;entryX=1;entryY=0;entryDx=0;entryDy=0;exitX=0;exitY=1;exitDx=0;exitDy=0;movable=0;resizable=0;rotatable=0;deletable=0;editable=0;locked=1;connectable=0;" parent="2bNtola9W9ZlGzoYoYjb-123" source="2bNtola9W9ZlGzoYoYjb-111" target="2bNtola9W9ZlGzoYoYjb-109" edge="1">
          <mxGeometry relative="1" as="geometry">
            <mxPoint x="460.0039524101725" y="280" as="sourcePoint" />
            <mxPoint x="620.0039524101725" y="280" as="targetPoint" />
          </mxGeometry>
        </mxCell>
        <mxCell id="2bNtola9W9ZlGzoYoYjb-114" value="" style="endArrow=none;html=1;rounded=0;entryX=0;entryY=0.75;entryDx=0;entryDy=0;exitX=0.5;exitY=0;exitDx=0;exitDy=0;movable=0;resizable=0;rotatable=0;deletable=0;editable=0;locked=1;connectable=0;" parent="2bNtola9W9ZlGzoYoYjb-123" source="2bNtola9W9ZlGzoYoYjb-108" target="2bNtola9W9ZlGzoYoYjb-109" edge="1">
          <mxGeometry relative="1" as="geometry">
            <mxPoint x="460.0039524101725" y="280" as="sourcePoint" />
            <mxPoint x="620.0039524101725" y="280" as="targetPoint" />
          </mxGeometry>
        </mxCell>
        <mxCell id="2bNtola9W9ZlGzoYoYjb-115" value="M" style="resizable=0;html=1;whiteSpace=wrap;align=right;verticalAlign=bottom;movable=0;rotatable=0;deletable=0;editable=0;locked=1;connectable=0;" parent="2bNtola9W9ZlGzoYoYjb-114" connectable="0" vertex="1">
          <mxGeometry x="1" relative="1" as="geometry">
            <mxPoint x="-8" y="24" as="offset" />
          </mxGeometry>
        </mxCell>
        <mxCell id="2bNtola9W9ZlGzoYoYjb-116" value="" style="endArrow=none;html=1;rounded=0;entryX=1;entryY=0;entryDx=0;entryDy=0;exitX=0;exitY=0.5;exitDx=0;exitDy=0;movable=0;resizable=0;rotatable=0;deletable=0;editable=0;locked=1;connectable=0;" parent="2bNtola9W9ZlGzoYoYjb-123" source="2bNtola9W9ZlGzoYoYjb-108" target="2bNtola9W9ZlGzoYoYjb-12" edge="1">
          <mxGeometry relative="1" as="geometry">
            <mxPoint x="460.0039524101725" y="280" as="sourcePoint" />
            <mxPoint x="620.0039524101725" y="280" as="targetPoint" />
          </mxGeometry>
        </mxCell>
        <mxCell id="2bNtola9W9ZlGzoYoYjb-117" value="M" style="resizable=0;html=1;whiteSpace=wrap;align=right;verticalAlign=bottom;movable=0;rotatable=0;deletable=0;editable=0;locked=1;connectable=0;" parent="2bNtola9W9ZlGzoYoYjb-116" connectable="0" vertex="1">
          <mxGeometry x="1" relative="1" as="geometry">
            <mxPoint x="17" as="offset" />
          </mxGeometry>
        </mxCell>
        <mxCell id="2bNtola9W9ZlGzoYoYjb-118" value="DEPLOY" style="shape=rhombus;perimeter=rhombusPerimeter;whiteSpace=wrap;html=1;align=center;movable=0;resizable=0;rotatable=0;deletable=0;editable=0;locked=1;connectable=0;" parent="2bNtola9W9ZlGzoYoYjb-123" vertex="1">
          <mxGeometry x="620.0039524101725" y="302.91" width="90.17" height="60" as="geometry" />
        </mxCell>
        <mxCell id="2bNtola9W9ZlGzoYoYjb-119" value="" style="endArrow=none;html=1;rounded=0;entryX=0.75;entryY=1;entryDx=0;entryDy=0;exitX=0.5;exitY=0;exitDx=0;exitDy=0;movable=0;resizable=0;rotatable=0;deletable=0;editable=0;locked=1;connectable=0;" parent="2bNtola9W9ZlGzoYoYjb-123" source="2bNtola9W9ZlGzoYoYjb-118" target="2bNtola9W9ZlGzoYoYjb-109" edge="1">
          <mxGeometry relative="1" as="geometry">
            <mxPoint x="460.0039524101725" y="280" as="sourcePoint" />
            <mxPoint x="620.0039524101725" y="280" as="targetPoint" />
          </mxGeometry>
        </mxCell>
        <mxCell id="2bNtola9W9ZlGzoYoYjb-120" value="1" style="resizable=0;html=1;whiteSpace=wrap;align=right;verticalAlign=bottom;movable=0;rotatable=0;deletable=0;editable=0;locked=1;connectable=0;" parent="2bNtola9W9ZlGzoYoYjb-119" connectable="0" vertex="1">
          <mxGeometry x="1" relative="1" as="geometry">
            <mxPoint x="-2" y="23" as="offset" />
          </mxGeometry>
        </mxCell>
        <mxCell id="2bNtola9W9ZlGzoYoYjb-121" value="" style="endArrow=none;html=1;rounded=0;entryX=0.5;entryY=1;entryDx=0;entryDy=0;movable=1;resizable=1;rotatable=1;deletable=1;editable=1;locked=0;connectable=1;" parent="2bNtola9W9ZlGzoYoYjb-123" target="2bNtola9W9ZlGzoYoYjb-118" edge="1">
          <mxGeometry relative="1" as="geometry">
            <mxPoint x="576.8739524101725" y="373.38" as="sourcePoint" />
            <mxPoint x="736.8739524101725" y="373.38" as="targetPoint" />
          </mxGeometry>
        </mxCell>
        <mxCell id="2bNtola9W9ZlGzoYoYjb-122" value="M" style="resizable=1;html=1;whiteSpace=wrap;align=right;verticalAlign=bottom;movable=1;rotatable=1;deletable=1;editable=1;locked=0;connectable=1;" parent="2bNtola9W9ZlGzoYoYjb-121" connectable="0" vertex="1">
          <mxGeometry x="1" relative="1" as="geometry">
            <mxPoint x="-70" y="30" as="offset" />
          </mxGeometry>
        </mxCell>
        <mxCell id="RaL5LhFAcqQ2QkmYCKX3-1" value="&lt;h1 style=&quot;margin-top: 0px;&quot;&gt;&lt;span style=&quot;font-weight: 400;&quot;&gt;&lt;font style=&quot;font-size: 18px;&quot;&gt;Relational Model&lt;/font&gt;&lt;/span&gt;&lt;/h1&gt;&lt;div&gt;&lt;pre style=&quot;margin-top: 0px;&quot;&gt;&lt;font style=&quot;font-size: 16px;&quot;&gt;&lt;font style=&quot;&quot;&gt;&lt;span style=&quot;background-color: initial; font-weight: normal;&quot;&gt;NhanVien(&lt;/span&gt;&lt;span style=&quot;background-color: initial;&quot;&gt;&lt;u&gt;MaNV&lt;/u&gt;&lt;/span&gt;&lt;span style=&quot;background-color: initial; font-weight: normal;&quot;&gt;, TenNV, GioiTinh, NgaySinh, DiaChi, Luong,&amp;nbsp;&lt;font style=&quot;&quot; color=&quot;#ff0000&quot;&gt;MaPB, MaNGS, NgayNhanChuc&lt;/font&gt;&lt;/span&gt;&lt;span style=&quot;background-color: initial; font-weight: normal;&quot;&gt;)&lt;br&gt;&lt;/span&gt;&lt;/font&gt;&lt;/font&gt;&lt;pre&gt;&lt;font style=&quot;font-size: 16px;&quot;&gt;&lt;span style=&quot;font-weight: normal;&quot;&gt;&lt;font style=&quot;&quot;&gt;PhongBan(&lt;u style=&quot;&quot;&gt;MaPB&lt;/u&gt;, TenPB, &lt;font color=&quot;#ff0000&quot;&gt;MaNQL&lt;/font&gt;, NgayBatDau)&lt;/font&gt;&lt;/span&gt;&lt;/font&gt;&lt;/pre&gt;&lt;/pre&gt;&lt;pre style=&quot;margin-top: 0px;&quot;&gt;&lt;font style=&quot;font-size: 16px;&quot;&gt;&lt;span style=&quot;font-weight: normal;&quot;&gt;&lt;font style=&quot;&quot;&gt;DuAn(&lt;u&gt;MaDA&lt;/u&gt;, TenDA, &lt;font color=&quot;#ff0000&quot;&gt;MaPB&lt;/font&gt;, &lt;font color=&quot;#ff0000&quot;&gt;MaDD&lt;/font&gt;)&lt;/font&gt;&lt;/span&gt;&lt;/font&gt;&lt;/pre&gt;&lt;pre style=&quot;margin-top: 0px;&quot;&gt;&lt;span style=&quot;font-size: 16px;&quot;&gt;DiaDiem(&lt;u&gt;MaDD&lt;/u&gt;, TenDD)&lt;/span&gt;&lt;/pre&gt;&lt;pre style=&quot;margin-top: 0px;&quot;&gt;&lt;span style=&quot;font-size: 16px;&quot;&gt;NguoiPhuThuoc(&lt;u&gt;TenNPT&lt;/u&gt;, GioiTinhNPT, NgaySinhNPT, MoiQH, &lt;u&gt;&lt;font color=&quot;#ff0000&quot;&gt;MaNV&lt;/font&gt;&lt;/u&gt;)&lt;/span&gt;&lt;/pre&gt;&lt;pre style=&quot;margin-top: 0px;&quot;&gt;&lt;span style=&quot;font-size: 16px;&quot;&gt;&lt;font color=&quot;#cc6600&quot;&gt;PhuTrach(&lt;u style=&quot;&quot;&gt;MaNV&lt;/u&gt;, &lt;u style=&quot;&quot;&gt;MaDA&lt;/u&gt;, SoGio)&lt;/font&gt;&lt;/span&gt;&lt;/pre&gt;&lt;pre style=&quot;margin-top: 0px;&quot;&gt;&lt;span style=&quot;font-size: 16px;&quot;&gt;&lt;font color=&quot;#cc6600&quot;&gt;PhanCongDD(&lt;u&gt;MaDD&lt;/u&gt;, &lt;u&gt;MaPB&lt;/u&gt;)&lt;/font&gt;&lt;/span&gt;&lt;/pre&gt;&lt;/div&gt;" style="text;html=1;whiteSpace=wrap;overflow=hidden;rounded=0;" parent="1" vertex="1">
          <mxGeometry x="45" y="730" width="760" height="360" as="geometry" />
        </mxCell>
      </root>
    </mxGraphModel>
  </diagram>
</mxfile>
